<svg width="20" height="20" viewBox="0 0 20 20" fill="none" xmlns="http://www.w3.org/2000/svg">
<path d="M16.8354 12.5234C16.7964 12.3828 16.8823 12.1875 16.9644 12.0469C16.9894 12.005 17.0168 11.9646 17.0464 11.9258C17.748 10.8831 18.1234 9.65519 18.1245 8.39844C18.1362 4.79688 15.0972 1.875 11.3394 1.875C8.06201 1.875 5.32764 4.10547 4.68701 7.06641C4.59117 7.50527 4.54272 7.95314 4.54248 8.40234C4.54248 12.0078 7.46435 15.0078 11.2222 15.0078C11.8198 15.0078 12.6245 14.8281 13.0659 14.707C13.5073 14.5859 13.9448 14.4258 14.0581 14.3828C14.1742 14.339 14.2973 14.3165 14.4214 14.3164C14.5568 14.3159 14.6909 14.3425 14.8159 14.3945L17.0308 15.1797C17.0793 15.2002 17.1307 15.2134 17.1831 15.2188C17.266 15.2188 17.3455 15.1858 17.4041 15.1272C17.4627 15.0686 17.4956 14.9891 17.4956 14.9063C17.4929 14.8705 17.4863 14.8351 17.4761 14.8008L16.8354 12.5234Z" stroke="#6F6CFF" stroke-width="1.5" stroke-miterlimit="10" stroke-linecap="round"/>
<path d="M2.59612 9.0625C2.08379 9.98291 1.83595 11.0271 1.88 12.0795C1.92405 13.132 2.25827 14.1518 2.84573 15.0262C2.93596 15.1625 2.98674 15.268 2.97112 15.3387C2.95549 15.4094 2.5051 17.7555 2.5051 17.7555C2.49427 17.8104 2.49838 17.8672 2.517 17.9199C2.53562 17.9727 2.56807 18.0195 2.61096 18.0555C2.66819 18.1011 2.73935 18.1256 2.81252 18.125C2.85162 18.1251 2.89033 18.1171 2.9262 18.1016L5.1219 17.2422C5.27302 17.1826 5.4416 17.1854 5.59065 17.25C6.33049 17.5383 7.14846 17.7188 7.96682 17.7188C9.06497 17.7199 10.1439 17.4303 11.0938 16.8793" stroke="#6F6CFF" stroke-width="1.5" stroke-miterlimit="10" stroke-linecap="round"/>
</svg>
